<svg xmlns="http://www.w3.org/2000/svg" viewBox="0 0 120 120" width="480" height="480">
  <defs>
    <linearGradient id="g" x1="0" y1="0" x2="1" y2="1">
      <stop offset="0" stop-color="#8B7BF0"/>
      <stop offset="1" stop-color="#6C5CE7"/>
    </linearGradient>
    <linearGradient id="wave" x1="0" y1="0" x2="0" y2="1">
      <stop offset="0" stop-color="#CFC7FF"/>
      <stop offset="1" stop-color="#A99CFF"/>
    </linearGradient>
    <clipPath id="dropClip">
      <path d="M60 26 C60 26 84 54 84 74 C84 87.3 73.3 98 60 98 C46.7 98 36 87.3 36 74 C36 54 60 26 60 26 Z"/>
    </clipPath>
  </defs>
  <circle cx="60" cy="60" r="51" fill="none" stroke="url(#g)" stroke-width="7.5"
          stroke-linecap="round" stroke-dasharray="240 80" transform="rotate(-106 60 60)"/>
  <path d="M60 26 C60 26 84 54 84 74 C84 87.3 73.3 98 60 98 C46.7 98 36 87.3 36 74 C36 54 60 26 60 26 Z" fill="url(#g)"/>
  <g clip-path="url(#dropClip)">
    <path d="M30 74 q 7.5 -7 15 0 t 15 0 t 15 0 t 15 0 V100 H30 Z" fill="url(#wave)"/>
  </g>
  <ellipse cx="50" cy="58" rx="4.5" ry="8" fill="#ffffff" opacity="0.4" transform="rotate(-18 50 58)"/>
</svg>
